FFmpeg version SVN-r25716, Copyright (c) 2000-2010 the FFmpeg developers  built on Nov 10 2010 12:23:18 with gcc 4.1.2 20080704 (Red Hat 4.1.2-48)  configuration: --enable-libmp3lame --enable-shared --disable-mmx --arch=x86_64  libavutil     50.33. 0 / 50.33. 0  libavcore      0.12. 1 /  0.12. 1  libavcodec    52.94. 4 / 52.94. 4  libavformat   52.84. 0 / 52.84. 0  libavdevice   52. 2. 2 / 52. 2. 2  libavfilter    1.59. 0 /  1.59. 0  libswscale     0.12. 0 /  0.12. 0Input #0, avi, from '/RAID10/data/converted_video_files/11972.avi':  Duration: 00:00:21.08, start: 0.000000, bitrate: 4198 kb/s    Stream #0.0: Video: mpeg4, yuv420p, 720x480 [PAR 1:1 DAR 3:2], 25 tbr, 29.97 tbn, 25 tbc    Stream #0.1: Audio: pcm_s16le, 48000 Hz, 2 channels, s16, 1536 kb/s[buffer @ 0x15331ad0] w:720 h:480 pixfmt:yuv420pOutput #0, flv, to '/RAID10/data/converted_video_files/11972.flv':  Metadata:    encoder         : Lavf52.84.0    Stream #0.0: Video: flv, yuv420p, 720x480 [PAR 1:1 DAR 3:2], q=2-31, 600 kb/s, 1k tbn, 24 tbc    Stream #0.1: Audio: libmp3lame, 22050 Hz, 2 channels, s16, 96 kb/sStream mapping:  Stream #0.0 -> #0.0  Stream #0.1 -> #0.1Press [q] to stop encodingframe=   41 fps=  0 q=5.6 size=     243kB time=1.75 bitrate=1136.0kbits/s dup=0 drop=10    frame=   90 fps= 86 q=4.9 size=     430kB time=3.79 bitrate= 929.1kbits/s dup=0 drop=22    frame=  138 fps= 88 q=5.8 size=     606kB time=5.79 bitrate= 857.0kbits/s dup=0 drop=34    frame=  183 fps= 89 q=5.5 size=     780kB time=7.67 bitrate= 832.9kbits/s dup=0 drop=45    frame=  230 fps= 90 q=5.3 size=     953kB time=9.62 bitrate= 811.3kbits/s dup=0 drop=57    frame=  281 fps= 92 q=5.5 size=    1141kB time=11.75 bitrate= 795.5kbits/s dup=0 drop=70    frame=  332 fps= 93 q=4.6 size=    1308kB time=13.87 bitrate= 772.2kbits/s dup=0 drop=83    frame=  380 fps= 93 q=4.7 size=    1475kB time=15.87 bitrate= 761.2kbits/s dup=0 drop=94    frame=  425 fps= 93 q=5.4 size=    1653kB time=17.75 bitrate= 762.9kbits/s dup=0 drop=105    frame=  471 fps= 93 q=5.9 size=    1828kB time=19.67 bitrate= 761.4kbits/s dup=0 drop=117    frame=  506 fps= 93 q=5.8 Lsize=    1962kB time=21.12 bitrate= 761.0kbits/s dup=0 drop=126    video:1694kB audio:248kB global headers:0kB muxing overhead 1.075149%